<svg width="640" height="360" viewBox="0 0 640 360" fill="none" xmlns="http://www.w3.org/2000/svg">
  <rect width="640" height="360" rx="28" fill="#091224"/>
  <rect x="38" y="38" width="564" height="284" rx="22" fill="url(#paint0_linear)"/>
  <rect x="70" y="72" width="500" height="36" rx="12" fill="#CFFAFE" fill-opacity="0.16"/>
  <rect x="88" y="84" width="120" height="12" rx="6" fill="#67E8F9"/>
  <rect x="70" y="132" width="210" height="142" rx="18" fill="#0F172A"/>
  <rect x="302" y="132" width="268" height="26" rx="10" fill="#CFFAFE" fill-opacity="0.18"/>
  <rect x="302" y="178" width="210" height="18" rx="9" fill="#E2E8F0" fill-opacity="0.88"/>
  <rect x="302" y="210" width="236" height="18" rx="9" fill="#E2E8F0" fill-opacity="0.52"/>
  <rect x="302" y="242" width="190" height="18" rx="9" fill="#E2E8F0" fill-opacity="0.36"/>
  <circle cx="496" cy="255" r="45" fill="#38BDF8" fill-opacity="0.18"/>
  <path d="M116 173H234" stroke="#67E8F9" stroke-width="14" stroke-linecap="round"/>
  <path d="M116 205H210" stroke="#E2E8F0" stroke-opacity="0.82" stroke-width="14" stroke-linecap="round"/>
  <path d="M116 237H188" stroke="#E2E8F0" stroke-opacity="0.58" stroke-width="14" stroke-linecap="round"/>
  <defs>
    <linearGradient id="paint0_linear" x1="82" y1="64" x2="565" y2="310" gradientUnits="userSpaceOnUse">
      <stop stop-color="#0F172A"/>
      <stop offset="1" stop-color="#111C35"/>
    </linearGradient>
  </defs>
</svg>
